<svg xmlns="http://www.w3.org/2000/svg" xmlns:xlink="http://www.w3.org/1999/xlink" viewBox="0 0 1147.33 844.24"><defs><style>.cls-1{fill:url(#Безымянный_градиент_9);}</style><linearGradient id="Безымянный_градиент_9" y1="422.12" x2="1147.33" y2="422.12" gradientUnits="userSpaceOnUse"><stop offset="0" stop-color="#fff"/><stop offset="1" stop-color="#706f6f"/></linearGradient></defs><g id="Layer_2" data-name="Layer 2"><g id="Layer_1-2" data-name="Layer 1"><path class="cls-1" d="M1146.46,800c-17.3-43.34-51.82-78.61-85.19-112.71-7.94-8.11-15.44-15.77-22.84-23.68-3.93-4.19-8.15-8.5-12.63-13.06l-.12-.13c-24.35-24.81-54.65-55.69-55.93-89.91-.61-16.44,1.71-32.6,4.33-47.64l1.95-1.25-1.35-2.14c.5-2.81,1-5.6,1.53-8.39,3.24-17.65,6.6-35.91,6.43-54.45l.27-.17-.28-.65a115.64,115.64,0,0,0-7.71-41.1c-9.47-24.28-23.79-46.48-37.65-68-17-26.38-34.6-53.66-43.15-84.82-1.63-5.91-3.22-12.07-4.62-17.51-4.56-17.68-9.28-36-16.58-53.31-6-14.34-13.41-28.3-20.57-41.86C845.79,126.84,839,114,833.29,100.88l-.52-1.2-1.28.26c-53.69,11-89.77-8.41-134-45.71l-.79-.66C665.81,27.44,633.82.42,590.88,0h-1.23c-41.21,0-77.34,19.88-112.29,39.11l-4.17,2.3c-44.39,24.38-84.61,39-136.57,31l-1.33-.2-.44,1.26c-13.16,37.25-28.75,74.28-43.82,110.1-12.65,30.07-25.74,61.16-37.35,92.3a142.91,142.91,0,0,0-7.47,29.89L245,308.05l.88.48a283.53,283.53,0,0,0-1.9,37.08l-.15-.09-1.65,2.78,1.81,1.08q0,3.62,0,7.21c.15,18.31.31,37.25-3,56.16-6.47,37.12-31.12,65.15-55,92.27-15.94,18.12-32.42,36.87-43.51,58.27-2.3,4.45-4.34,8.94-6.32,13.31-4,8.8-7.75,17.11-13.55,25.08-11.2,15.39-25.5,29.54-37,40.91-4.56,4.52-9.29,9.08-13.85,13.5-28,27-56.89,54.95-71,92.15L0,750.35l2.26.08c47,1.53,91.59,17.53,134.75,33,31.46,11.27,64,22.93,97.34,29C297.75,824,362.07,804.67,424.27,786c13.41-4,27.27-8.19,40.72-11.89l1.7-.46c35.62-9.8,72.46-19.92,109.57-22.63,36.19-2.62,70.84,8.28,102.9,20.46,19.33,7.34,38.51,16.11,58.82,25.4,50.92,23.28,103.59,47.36,158.21,47.36q3.13,0,6.29-.1c40.8-1.4,80.81-11.34,119.51-20.94,39.85-9.89,81-20.11,123-21l2.34,0ZM829.16,830.2l-.14-.61c-6.89-32.1-22.47-61.42-37.54-89.78-.92-1.75-1.86-3.51-2.8-5.28a227.65,227.65,0,0,0,32.67,16.83,103.49,103.49,0,0,0,39.14,8l1.86,2.22c19.76,23.52,40.18,47.84,47.52,79-2.71.16-5.18.28-7.5.36C877.62,841.77,853.22,837.4,829.16,830.2ZM247.24,356.57c0-1.76,0-3.52,0-5.28,11.43,6.73,24.86,14.24,39,20-3.74,13.93-6.92,27.44-9.7,41.24a301.81,301.81,0,0,1-30.05-17.43C247.45,381.73,247.34,368.37,247.24,356.57Zm283-314c.76-10.32,1.34-19,1.8-27.06A175.34,175.34,0,0,1,568,5.09q-.22,13-.54,26A162.86,162.86,0,0,0,530.19,42.58ZM613.45,6.09a124.39,124.39,0,0,1,33.92,14.26c.43,8.38,1,17.16,1.89,26.8A128.53,128.53,0,0,0,614,32.24Q613.67,19.15,613.45,6.09ZM746.34,93.25c1.82,9.93,4.26,20.2,7.46,31.34-10.06-5-20.31-11.64-32.1-20.81-2.37-10.9-4.17-20.92-5.51-30.57a211,211,0,0,0,30.49,19.12l-.49.08Zm38.41,12.48a257.38,257.38,0,0,0,9.86,29.58,98.34,98.34,0,0,1-35.43-8.2c-.4-.17-.79-.35-1.18-.54l-.31-.14a330,330,0,0,1-8-32.61,125.51,125.51,0,0,0,34.93,11.05l-.12,0ZM966.52,560.65a70.57,70.57,0,0,0,2.79,16.77c-14.94,10.42-29.08,24.76-44,40a89.28,89.28,0,0,1-2.89-15.56c-1.47-15.63-1.59-31.64-1.7-47.13l0-4c6.07-4.32,12.24-8.85,17.23-12.51,10-7.34,21.23-15.6,32.45-23C968.09,528.9,965.93,544.75,966.52,560.65ZM614.06,35.59c11.69,3,23.33,8.06,35.55,15.55.64,7,1.4,14.42,2.32,22.76-12.85-8-25.07-13.43-37.29-16.51Q614.32,46.49,614.06,35.59Zm-88.93,64.49c.78-7.75,1.56-16,2.39-25.14,13.81-7.33,26.65-12.21,39.2-14.9q-.3,10.84-.63,21.68C552.94,85.11,539.52,91.12,525.13,100.08Zm89.61-39.33C627,64,639.33,69.62,652.39,78q1.25,11.09,2.56,22c-13.8-9-26.76-15.06-39.55-18.43Q615.05,71.22,614.74,60.75ZM605.16,476.3c-11.16-5.85-22.27-8.83-33-8.87h-.26c-10.57,0-21.46,2.77-32.42,8.25.15-5.08.33-9.32.57-13.24,1.3-20.94,4.37-41.63,7.22-59.16,10.56-4.95,21-7.46,30.92-7.46h.29c10.13.05,20.57,2.77,31,8.09-1.73,16.32-3.57,35.57-4.13,55.15C605.2,464.52,605.13,470.17,605.16,476.3ZM748.64,205.76c-2.75-11.11-5.75-22-8.61-32.29,13.83,10.07,26.11,16.95,38.46,21.53,4,10.61,8.22,21.95,12.11,33.43C777.17,224.05,763.78,216.81,748.64,205.76Zm9.52,47.69c-1.82-13-4.55-27.09-8.34-42.86,14.83,10.48,28.61,17.56,42,21.62a383.54,383.54,0,0,1,11.55,42C789,271.12,774.13,264.33,758.16,253.45Zm5.43,50.37c-1.6-16.87-3-30.56-4.48-43.05-.12-1-.25-2-.38-3,15.92,10.52,30.79,17,45.39,19.91q.51,2.63,1,5.26c2.52,14.29,4.81,28.63,6.55,39.73C796.17,321.07,780.43,314.9,763.59,303.82ZM547.88,399.43c.93-5.65,1.89-11.28,2.84-16.86,2.58-15.14,5.24-30.79,7.35-46.63a82.52,82.52,0,0,1,30.12-6,69.63,69.63,0,0,1,28.38,6.22c-1.3,16.19-3.14,32.44-4.76,46.8q-1,8.71-2,17.55c-10.55-5.18-21.1-7.84-31.37-7.89h-.32A75,75,0,0,0,547.88,399.43Zm206.8,69.44a323.68,323.68,0,0,1-25.33-25.37c-1.54-17.34-3.07-34.93-4.53-52.28q-.68-8-1.29-16.07c7.37,8.08,14.1,15,20.53,21a155,155,0,0,0,27.16,20.78c.9,7.78,1.76,14.67,2.6,21.05,2,15,4.36,31.06,7.21,49A120.31,120.31,0,0,1,754.68,468.87ZM591.54,189.46a88,88,0,0,1,24.59,3.6q.55,16.51,1,33.13a84.19,84.19,0,0,0-26-4.23h-.27a82.35,82.35,0,0,0-26.67,4.7q.51-13.95,1-27.74l.19-4.93a81.33,81.33,0,0,1,25.48-4.53ZM708.47,300.32C696.6,287,684.32,273.25,671,260.86q-1-18.24-2.07-37.27c13,10.8,25.07,22.83,36.79,34.49,2.36,2.33,4.67,4.64,7,6.9,1.07,15.14,2.09,30.76,2.92,43.37Q712.1,304.41,708.47,300.32Zm-87.08-27.68c-.19-12.82-.49-26.53-.89-41.85,15.12,5.75,30.64,16.08,47.38,31.55.87,16,1.7,32.08,2.47,47.83C657.67,297.16,640.77,281.35,621.39,272.64Zm44.19-51.82q1.08,18.87,2,36.91c-16.56-14.92-32-24.89-47.23-30.42q-.45-16.65-1-33.23C634.13,198.92,649.26,207.68,665.58,220.82Zm42.46,35c-12.47-12.39-25.37-25.21-39.32-36.58q-1-17.26-2.07-35.28c-.08-1.26-.17-2.51-.25-3.77C680,190.54,692.73,202.22,705,213.53l3.88,3.57.14,1.38c.17,1.64.34,3.27.48,4.91.94,11,1.85,22.7,2.86,36.7C710.94,258.67,709.5,257.23,708,255.78Zm-42.72-39.29c-16.16-12.71-31.25-21.17-46-25.85q-.63-18.54-1.3-36.9C632.3,158,647,165.85,663,177.59l0,.38q.22,3.08.41,6.14Q664.41,200.64,665.32,216.49ZM560.8,231.35c-.49,13.5-1,27.06-1.42,40.58-20.44,8-39.45,22.77-57,37.59,1.15-13.17,2.49-27.06,4.08-42.37C522.14,253.84,540.76,239.28,560.8,231.35Zm1.33-36.2q-.6,16.2-1.2,32.69c-20.07,7.62-38.45,21.64-53.95,34.67,1.13-10.72,2.36-22,3.76-34.36C524.34,216.67,542.37,202.65,562.13,195.15Zm-52.07,32.46.12.13h0l-.1-.13Zm52.59,43.11c.45-13.54.94-27.1,1.43-40.6a79.88,79.88,0,0,1,26.79-4.93h.27a81.37,81.37,0,0,1,26.1,4.44c.41,15.29.71,28.93.91,41.62a74.07,74.07,0,0,0-27.3-5.59h-.4A82,82,0,0,0,562.65,270.72Zm-.39-79.06c-19.69,7.18-37.43,20.55-51,31.83q2-17.44,4-34.68l.79-6.82c16.82-13.62,32.4-22.68,47.57-27.65Q562.95,173.08,562.26,191.66Zm-55.11,39.57c-1.4,12.4-2.62,23.65-3.74,34.31-13.27,11.34-25.91,23.37-38.15,35q-6.22,5.93-12.6,11.93l.34-1.59c2.49-11.63,5.06-23.66,7.42-35.93q4.9-4.69,9.73-9.36C481.44,254.71,494.17,242.43,507.15,231.23Zm-4.22,39c-1.59,15.42-2.91,29.29-4,42.31-12,10.33-23.54,21.14-36.27,33.16-7.12,6.72-13.62,12.84-20.26,18.92,2.73-16.35,6.12-32.57,9.11-46.62,5.41-5,10.74-10.11,16-15.12C478.26,292.64,490.42,281.08,502.93,270.24ZM707.2,211.16c-13-12-26.5-24.4-41.09-35.28-.83-11.61-2-23.87-3.55-38.39,14,10.31,27.07,22.11,39.69,33.54,2.75,15.32,4.76,28.83,6.14,41.22ZM513,180.3c-15.75,12.9-30.34,27.78-44.45,42.21,1.83-13.41,3.95-27.87,6.46-44.11,12.11-11.65,27.05-26,42.55-38Q515.34,160.48,513,180.3Zm-.54,4.66-.4,3.48q-2.21,18.88-4.39,38.08c-13.84,11.75-27,24.46-39.77,36.76l-6.46,6.22c2.24-12.06,3.94-22.74,5.18-32.57q.39-3,.8-6l.41-3,2.61-2.66C483.81,211.53,497.61,197.42,512.47,185ZM460.42,409.54c-10.19,10.1-18.8,18.61-27.88,27.08,2.6-17.54,4.65-33,6.27-47.06.72-6.31,1.61-12.79,2.72-19.8,7.76-7.05,15.46-14.29,23.32-21.71,11.77-11.11,22.48-21.15,33.66-30.88q-.64,7.71-1.23,15.41c-1,13.86-2.75,29-5.23,46.38l-.95.88C480.67,389.45,470.39,399.64,460.42,409.54Zm40.08-76.72q.71-9.33,1.5-18.68l.82-.72c.42-.36.83-.73,1.25-1.08,17-14.42,35.49-28.84,55.19-36.88q-.27,8.06-.53,16.08c-.4,12.72-1.59,26.5-3.62,42.12-22.3,9.2-41.53,25.59-59.31,41.86C498,359.67,499.54,345.68,500.5,332.82Zm87.63-6.13a84.93,84.93,0,0,0-29.59,5.62c1.91-15,3-28.32,3.42-40.67q.27-8.7.57-17.45a79.67,79.67,0,0,1,27.92-5.3h.39a71.35,71.35,0,0,1,27.35,5.88q.13,8.49.21,17c.11,12.26-.4,25.68-1.57,41A73.46,73.46,0,0,0,588.13,326.69ZM620,334.12c1.23-15.85,1.77-29.73,1.66-42.41h0q-.07-7.74-.19-15.49c18.61,8.75,34.95,24.21,47.17,36.79l1.23,1.3.76.81q.45,9.36.88,18.57c.61,13,1,27.33,1.21,43.62C657,360.35,639.82,343.43,620,334.12Zm86.09-31.65q5,5.67,9.93,11.07c1.09,16.73,2.27,34.5,3.6,52.37-5.53-6.24-10.93-12.54-16.42-19-10.25-12-19.55-22.81-29.41-33.17-.77-15.83-1.6-32-2.47-48.23C683.56,277.24,695,290.06,706.06,302.47ZM617.85,150.33l-.44-12.11q-.46-12.34-.91-24.84C630.06,117.25,644,124.32,659,135c1.62,14.7,2.79,27,3.65,38.41C646.9,162,632.21,154.47,617.85,150.33Zm-54.09.56c-15.12,4.77-30.58,13.46-47.16,26.55q2.28-19.75,4.52-39.73C536.65,126.15,551,118.4,565.05,114Q564.43,132.52,563.76,150.89ZM407.85,398.05c9.24-7,18.78-14.92,29.89-24.88-.86,5.75-1.57,11-2.14,16-1.74,15.19-4,31.85-6.85,50.94a367.52,367.52,0,0,1-33.3,27.5,140.62,140.62,0,0,1-26.05,15c3.06-17.84,5.64-33.4,7.88-47.52,1-6.37,2.25-12.88,3.8-19.89a191.78,191.78,0,0,0,26.77-17.19Zm-10.51,72.2A361.39,361.39,0,0,0,428,445.18c-2.25,14.74-4.56,29-7.31,46-1.86,11.41-3.73,23-5.55,34.57a313.41,313.41,0,0,1-29.79,26.38,111.56,111.56,0,0,1-31.12,17.35c1.9-10.84,3.8-21.64,5.68-32.31,2.94-16.69,5.93-33.66,8.86-50.72A142.59,142.59,0,0,0,397.34,470.25ZM419,521.86q2.4-15.19,4.85-30.16c2.64-16.21,5.36-33,7.92-50,10.72-9.87,21-20.05,30.92-29.91,9.28-9.21,18.86-18.71,28.64-27.8-2.36,16-5.05,31.83-7.66,47.2q-2.06,12-4.08,24.29c-9.26,9.78-18.49,20.19-26.64,29.39C442.08,497.16,430.85,509.82,419,521.86ZM700.72,349c6.78,8,12.92,15.11,19.26,22.19q.78,10.15,1.62,20.27,2.08,24.64,4.15,48c-8-9-15.69-18.34-23.16-27.36-9.27-11.22-17.68-21.31-26.62-31.21-.19-17.82-.6-33.32-1.26-47.4q-.35-7.35-.71-14.8C683,328.39,691.79,338.58,700.72,349ZM676,385.84c8.12,9.12,16,18.62,24.09,28.36,7.89,9.54,16.82,20.35,26.12,30.66,2.69,30.17,5.41,59.28,8.1,86.57-11.78-13.21-22.86-27.11-33.59-40.58-8.31-10.44-16.46-20.62-24.73-30.36,0-9.38,0-18.72,0-27.95C676.1,417.32,676.15,401.61,676,385.84Zm76.52,85.44a121.37,121.37,0,0,0,29.11,19.6c4.82,30.09,10.21,60.39,15.78,91.36a107.15,107.15,0,0,1-30.34-18.45A311.93,311.93,0,0,1,738,535.46c-2.73-27.52-5.47-56.66-8.15-86.67A312.9,312.9,0,0,0,752.54,471.28Zm-6.27-77.52c-7.24-6.77-14.6-14.36-23.15-23.88-1.33-17.51-2.49-34.85-3.65-52.51,7.12,7.75,12.71,13.46,18,18.35A204.71,204.71,0,0,0,765.27,358c1.48,16.29,3.28,35.43,5.48,54.85A155,155,0,0,1,746.27,393.76Zm-6.64-60.4c-7.36-6.85-14.8-14.87-20.5-21.15l-.24-3.79c-.86-13.18-1.74-26.57-2.68-40,5.8,5.67,12.47,12.05,19.24,17.86a265.41,265.41,0,0,0,25.07,19.4c1.07,11.32,2.08,22.6,3.07,33.7.43,4.81.87,9.66,1.3,14.51A209.47,209.47,0,0,1,739.63,333.36Zm-2.08-49.55c-7.54-6.46-15.18-13.86-21.69-20.27-1.1-15.57-2.09-28.42-3.12-40.43q-.12-1.37-.27-2.73c5.28,4.82,10.88,9.85,16.51,14.58,7.52,6.31,16.5,13.65,26.19,20.35.26,1.94.51,3.89.73,5.83,1.39,11.88,2.74,24.74,4.23,40.34A273.65,273.65,0,0,1,737.55,283.81Zm-6.49-51.32c-5.94-5-11.93-10.38-19.07-16.93-1.29-12.46-3.2-25.89-5.84-41,5.6,5.06,10.74,9.67,15.9,14.05,6.84,5.82,15,12.62,23.74,19.06,3.93,15.94,6.79,30.11,8.74,43.25C745.87,244.77,737.84,238.18,731.06,232.49Zm-6.92-46.34h0c-6.25-5.31-12.68-11.13-18.91-16.77-1.81-10.08-3.76-20-5.61-29.34,5.08,4.5,10.32,9.14,15.49,13.52,6,5.07,13.09,11,20.68,16.76,3.35,11.94,6.16,22.14,8.76,32.41C737.11,197.08,730.1,191.22,724.14,186.15Zm-28.52-49.64c1.78,8.9,3.81,19.11,5.69,29.31-13.48-12.18-25.87-23.09-39.23-32.67-1-9.14-2.1-18.24-3.08-26.43C671.91,115.79,684.16,126.39,695.62,136.51ZM591.56,149.72a91.09,91.09,0,0,1,23.15,3.08q.67,18.31,1.31,36.86a91.33,91.33,0,0,0-24.47-3.43h-.68a83.86,83.86,0,0,0-25.33,4.3q.68-18.49,1.36-37.21a88.78,88.78,0,0,1,24-3.61ZM518.07,136c-14.61,11-28.34,23.84-42.23,37.18q1.65-10.56,3.3-21L481.52,137c12.4-10.39,25.65-21.27,39.71-30.61C520.31,115.4,519.27,125.09,518.07,136Zm-54,95.75-.06.45c-.2,1.45-.4,2.91-.58,4.37-1.4,11-3.35,23.06-6,36.8-8.11,7.75-17.75,16.82-27.87,25.48-7.64,6.54-14.14,11.74-20.26,16.19,3.37-12.62,5.94-23.82,7.82-34.19q.48-2.56,1-5.16l.49-2.65c8.67-6.69,16.9-14,23.81-20.21C449.71,246.2,457.32,238.57,464.07,231.71Zm-32.39,69.56c9-7.69,17.74-15.86,24.7-22.47-2,10.05-4.07,19.85-6.54,31.41l-1.31,6.14c-10.95,10.19-20,18.17-28.46,25.1a251.09,251.09,0,0,1-23.59,17.42l1.28-4.21C401,344,404.67,331.93,408,319.9,415.16,314.89,422.69,309,431.68,301.27ZM422.12,344c7.63-6.25,15.7-13.32,25.25-22.13-3.59,17-6.48,31.49-8.85,46.31-12.3,11.13-22.67,19.82-32.62,27.34A192.56,192.56,0,0,1,382,411.07c3.73-16.17,8.45-32.35,13-47.49A244,244,0,0,0,422.12,344ZM408.27,599.49h0c2.88-26.44,6.78-52.44,9.88-72.19,13.09-13,25.35-26.88,37.21-40.25,8.19-9.23,15.65-17.61,23.31-25.81-2.58,16-5.65,36.39-7.63,57-.63,6.46-1.25,13.57-2,22.34-7.53,8.81-15.05,18.08-21.69,26.28-13,16-26.39,32.57-41.12,47.76C407.05,609.56,407.72,604.49,408.27,599.49ZM615,383.3c1.59-14.05,3.39-29.93,4.69-45.72,19,9.24,35.69,25.72,50.88,42.2.47.51.93,1,1.4,1.55l.77.87c.17,17.24.12,34.81.07,50.33,0,8,0,16.06,0,24.16l-2-2.3c-15.54-17.82-34.86-39.95-57.87-52.34Q614,392.62,615,383.3ZM800.94,583.52c-5.79-32.22-11-61.38-15.78-91.11a96.85,96.85,0,0,0,38.17,7.47,136.15,136.15,0,0,0,20.29-1.63c5,24.5,10.1,51.06,16.17,83.44C838.86,589.18,819.59,589.78,800.94,583.52Zm-16.38-94.89c-3-18.73-5.45-35.45-7.54-51.11-.75-5.65-1.49-11.61-2.32-18.64A96.84,96.84,0,0,0,822.06,431c2.39,0,4.92-.09,7.53-.26,1.31,6.63,2.43,12.1,3.52,17.17,3.19,14.74,6.41,30.19,9.86,47.19C820.62,498.45,802,496.4,784.56,488.63Zm-10.32-73.7c-2.24-19.45-4-38.5-5.53-54.76,17.15,10.49,33.94,15.66,51.26,15.8,3.21,20,6.07,36.45,9,51.55C808.86,428.75,791.43,424.74,774.24,414.93Zm-5.9-58.8q-.76-8.56-1.53-17.05c-.91-10.28-1.85-20.7-2.83-31.16,16.77,10.69,32.56,16.59,48.19,18,1,6.29,2,12.55,2.91,18.74q2.14,13.93,4.38,28.07C802.25,372.48,785.51,367,768.34,356.13ZM658.55,130.66c-14.84-10.21-28.65-17-42.18-20.7q-.43-12.43-.86-24.94c12.85,3.52,25.93,9.83,40,19.26l.1.86C656.57,113.56,657.58,122.09,658.55,130.66Zm-93.38-20c-14,4.18-28.26,11.63-43.57,22.72,1.22-11.09,2.22-20.42,3.11-29.19,14.6-9.31,28.11-15.56,41.28-19.08Q565.59,97.86,565.17,110.63ZM476.79,141l1-.81L476,151.65c-1.32,8.31-2.64,16.73-3.95,25.18l-.72.7c-8.35,8-16.24,15.63-23.92,22.38-4.71,4.14-10.83,9.46-17.32,14.71q1.63-8,3.26-16,2.77-13.62,5.55-27.4c6.35-4.62,12.39-9.34,17-12.95C462.67,152.88,469.51,147.13,476.79,141Zm-27.3,61.34c7.13-6.27,14.51-13.33,21.7-20.25-2.52,16.39-4.62,30.9-6.4,44.28-8.35,8.52-16.51,16.77-24.54,24-6.06,5.47-13.19,11.8-20.75,17.81,2.75-14.59,5.8-30.14,9.54-48.65C436.73,213.46,444,207.16,449.49,202.34Zm-34.82,74.12c-.24,1.26-.48,2.52-.7,3.78-2.09,11.43-4.88,23.41-8.78,37.68C387.68,330,371.5,336.85,355.77,338.8a311.09,311.09,0,0,0,10.46-32.66c.51-2,1-4,1.49-6L368,299c15.14-3.38,30.06-10.75,46.77-23.11Zm-20,77.25-2.35,7.75c-18,10.87-35.27,16.54-52.69,17.31l3.77-9.12c4-9.64,7.6-18.37,11.08-27.47,15.86-1.63,32-8,49.37-19.47C401,332.8,398,342.76,394.67,353.71Zm-16.42,59.36c-18.6,9.48-36.79,13.55-55.55,12.4,4.43-15.42,10.34-30.55,15.58-43.41,17.51-.49,34.76-5.74,52.67-16C386.45,381,381.86,397,378.25,413.07Zm-.87,4.06c-1.34,6.25-2.41,12-3.29,17.5-2.33,14.69-5,30.89-8.22,49.53a103.75,103.75,0,0,1-57.48,5.91c3.82-16.67,6.94-31.36,9.55-44.91,1-5.3,2.29-10.7,3.87-16.5C340.65,429.94,358.85,426.16,377.38,417.13Zm-12.15,70.72c-2.82,16.4-5.69,32.71-8.52,48.76q-3,16.86-6,34c-19.1,5.92-39.22,5.39-61.47-1.63q2.14-8.73,4.28-17.36c4.43-17.85,9.43-38.06,14.13-58.43A106.42,106.42,0,0,0,365.23,487.85Zm-15.12,86.36c-5,28.59-8.62,50.48-11.8,70.84-.79,5-1.78,10-2.95,14.87-19.38,3.14-40.89-.24-65.68-10.31a186.69,186.69,0,0,0,5.1-18.9c4.47-20.64,9.42-41.13,13.7-58.56C310.71,579.13,330.9,579.81,350.11,574.21Zm-11.29,85.08c1.06-4.55,2-9.16,2.68-13.74,3.24-20.7,7-43,12.08-72.41,11.54-3.84,22.58-9.88,33.71-18.45a308.79,308.79,0,0,0,27-23.59c-4.22,27.18-7.08,48.26-9.23,68-.7,6.38-1.62,12.94-2.74,19.49a237.89,237.89,0,0,1-30.42,26A87.29,87.29,0,0,1,338.82,659.29Zm148-227.52c2.67-15.71,5.69-33.51,8.24-51.22,15.17-14,35.79-32.88,59.53-43.17-2,15.11-4.61,30.11-7.08,44.65q-1.62,9.45-3.21,19.06c-23.68,11.6-44.17,32.8-60.78,50.26Q485.18,441.49,486.85,431.77Zm251.65,109A304.71,304.71,0,0,0,765,566.26c10.69,9,21.82,15.64,33.09,19.7l.39,2.21c4,22.53,8.24,45.83,12.13,68.76,1.3,7.64,2.81,14.72,4.61,21.6-11.29-2.42-22.87-8-34.44-16.75a263.39,263.39,0,0,1-31.14-27.91c-1.88-9.22-3.35-18.68-4.39-28.14C743,585,740.73,563.19,738.5,540.79Zm63.26,47.28-.18-1a84.37,84.37,0,0,0,25.3,3.9,100.84,100.84,0,0,0,33.51-6.13c4,21.35,7.92,42.6,11.79,63.61.89,4.82,2,9.52,3.39,14.33-20.19,14.07-38.28,19.27-56.83,16.35-1.94-7.21-3.55-14.67-4.93-22.79C809.94,633.6,805.78,610.46,801.76,588.07ZM777,190.93c-12.17-4.86-24.42-12.06-38.34-22.53l-1.47-5.21c-1.92-6.82-4.08-14.47-6.17-22.17,12.54,9.28,23.72,15.82,35,20.51,3.06,8.43,6.2,16.75,9.69,25.94Zm-42.62-25.79c-6.22-4.84-12.11-9.78-17.13-14-5.26-4.46-10.61-9.2-15.79-13.78l-2.84-2.51-.4-2q-2.24-11.12-4.43-22.44l2.77,2.39c3.43,3,6.84,5.91,10.24,8.79,5.88,5,12.85,10.83,20,16.33,2.44,9.07,5,18.18,7.27,26.23Zm-75.84-62.71q-1.32-11-2.59-22.1C667,87.8,677.53,96.42,689.81,107c1.48,7.76,3,15.44,4.77,24.34C683.84,121.85,671.47,111.3,658.49,102.43Zm-43.9,47a95.4,95.4,0,0,0-23.73-2.93A91.76,91.76,0,0,0,567,149.94q.66-18.34,1.28-36.84a90,90,0,0,1,22.58-3.29,88.33,88.33,0,0,1,22.35,2.69q.46,13,.94,25.84Zm-92.93-47.14c-14.2,9.21-27.69,20.15-39.38,29.91,1.8-11.54,3.37-21.89,4.78-31.55,11.67-8.2,24.2-16.73,37.05-23.85C523.28,85.93,522.47,94.29,521.66,102.28Zm-42.8,4.16,4.56-3.23c-1.43,9.69-3,20.23-4.9,32.12l-3.81,3.2c-7.2,6.06-14,11.78-20.89,17.21-5.47,4.32-9.88,7.71-14,10.79,2.94-14.69,5.34-27,7.5-38.49,6.15-3.94,12-7.92,16.4-11C468.75,113.61,473.89,110,478.86,106.44Zm-42.92,62.92c-15.8,11.41-29.46,19.15-42.82,24.23l1.53-5.78c3-11.48,6.56-24.8,9.91-37.9,12.19-4.33,24.64-10.56,39-19.51C441.37,142,438.93,154.47,435.94,169.36ZM435,174q-2.43,12-4.86,24c-1.34,6.54-2.68,13.14-4,19.76-16.66,13.08-31.13,21.62-45.38,26.78,3.49-15.22,7.27-31.38,11.39-47.13C405.71,192.49,419.39,185,435,174Zm-66.12,121.5c3.24-13.27,6.34-26.8,9.49-40.62l1.51-6.61c14.37-4.89,28.81-13.08,45.26-25.67-3.73,18.5-6.76,34-9.48,48.6C398.77,284.1,383.86,291.85,368.88,295.49ZM536.8,462.23c-.28,4.44-.47,9.27-.62,15.15-24.35,13.36-45.08,37.51-61.75,56.94l-1.77,2.06c.57-6.85,1.08-12.57,1.59-17.83,2.13-22.17,5.59-44.5,8.37-61.54l2-2.06c16.16-17,36.19-38.06,59.12-49.93C541,422,538.06,441.88,536.8,462.23Zm71.78-3.07c.54-19,2.3-37.72,4-53.62,22,12.24,40.72,33.68,55.81,51,1.14,1.3,2.27,2.64,3.4,4l1,1.19c0,18.18.19,42,1.2,65.77.22,5.1.57,10.37,1,15.7l-3.48-4.23c-17-20.77-38.21-46.58-63.14-60.85C608.34,471.4,608.41,465.21,608.58,459.16ZM676,465.49c7.29,8.69,14.39,17.57,22.2,27.37,11.61,14.58,23.62,29.66,36.64,44,2.38,24,4.8,47.26,7.19,69.24.86,7.87,2,15.73,3.45,23.41-15.69-16.81-30-35.17-43.84-52.94-8.14-10.45-15.49-19.85-23-28.93-.73-7.21-1.21-13.86-1.49-20.31C676.26,504.93,676.06,482.76,676,465.49Zm194.54,111.8c-2.51,1.15-5,2.22-7.7,3.25-6-32-11.12-58.37-16.05-82.8,2.23-.39,4.46-.81,6.64-1.27,17.66-3.73,36.25-9.66,58.44-18.65a358.31,358.31,0,0,1,4.61,38.51c.72,11.14.88,22.73,1,32.77C905,557.94,888.44,569.06,870.56,577.29Zm-17.78-84c-2.23.47-4.45.89-6.62,1.26-3.43-16.95-6.67-32.45-9.89-47.36-1.08-5-2.17-10.32-3.44-16.75,1.8-.16,3.38-.33,4.9-.52,17.58-2.25,36.56-6.78,58-13.84,2,6.13,3.56,10.91,5,15.4a370.51,370.51,0,0,1,10.62,43.07C889,483.63,870.41,489.59,852.78,493.31Zm-15.45-66.58c-1.67.22-3.35.4-5.12.55-2.92-15-5.78-31.42-9-51.36,1.84-.05,3.52-.14,5.11-.28,15.59-1.35,31.7-5.36,49.23-12.25,2.06,6,4.15,12,6.22,17.89,3.55,10.15,7.31,21,10.92,31.75C873.47,420,854.69,424.52,837.33,426.73ZM729.6,135.94c-2.7-10-4.93-19-6.81-27.26,11.67,8.85,22,15.26,32.22,20.07,2.6,8.73,5.7,18.12,9.45,28.64C753.45,152.49,742.31,145.63,729.6,135.94ZM290.41,550.88q-2.1,8.49-4.23,17.11c-1.86-.63-3.56-1.23-5.17-1.84-16.78-6.34-32.71-15.37-44.84-22.63,4.91-9.46,9.68-18.74,14.06-28.25A340.36,340.36,0,0,0,265,477.36c12.34,6.86,23,11.3,33.54,13.95,1.91.49,3.89.93,5.92,1.34C299.81,512.93,294.82,533.07,290.41,550.88ZM271.63,630a182.75,182.75,0,0,1-4.95,18.35c-21.5-9.1-42.75-21.89-62.73-34.27,2-4.49,3.88-9.08,5.66-14,6.66-18.29,15.83-35.93,24.7-53l.38-.72c12.2,7.31,28.23,16.37,45.18,22.78,1.77.67,3.58,1.31,5.54,2C281.11,588.64,276.13,609.24,271.63,630ZM304,729.58c17.5-22.44,28-43.07,34-66.81a90.54,90.54,0,0,0,35.77-15.46,235.83,235.83,0,0,0,27.56-23.19c-4.59,24.31-12.21,49.36-23.24,76.48-1.2,2.95-2.44,5.9-3.68,8.86a252.15,252.15,0,0,1-37.55,16.92,112.08,112.08,0,0,1-35.27,6.23Zm77.11-27.76c11.78-29,19.72-55.67,24.25-81.63,16-16.07,30.51-34,44.55-51.3,6.31-7.79,12.51-15.41,18.73-22.78-.6,7.39-1.16,14.75-1.71,22l0,.53c-1.78,23.37-3.62,47.53-6.39,71.25q-.83,7.07-1.7,14.16c-7.31,5-14.7,10.13-21.24,14.7C418.71,681.9,399.28,695.49,379,707,379.68,705.23,380.38,703.53,381.08,701.82Zm82.6-61.55c2.77-23.75,4.61-47.9,6.39-71.26l0-.19c.67-8.86,1.36-17.88,2.1-26.93l4.69-5.47c16.1-18.77,36.07-42,59.23-55.29-.43,25.09,1.09,51,2.44,74,.61,10.45,1.24,21.25,1.71,31.79q.43,10.07.9,20.13c-25.91,9.31-50.06,25.43-71.4,39.67l-4.62,3.08-2.82,1.9Q463,645.95,463.68,640.27ZM669,541c1.9,2.31,3.74,4.56,5.53,6.71l1,1.25c3.88,37.68,13.17,74.46,23.26,111.92l-2.93-2.35-5.35-4.24c-21-16.68-44.71-35.57-70.88-46.32-5.39-40.6-10.67-83.72-11.25-126.11C632.14,496,652.57,520.88,669,541Zm30.07,37.57c14.95,19.19,30.41,39,47.57,56.91,5.29,25.54,14,50.41,26.5,76,2,4.14,4.27,8.57,7,13.77-19.9-13.34-38.7-29.05-57-44.36-6.54-5.47-13.3-11.12-20-16.58-10.5-38.8-19.55-74-23.78-110.76C685.87,561.56,692.42,570,699.11,578.53Zm79.74,85.83c12.54,9.43,25.1,15.4,37.34,17.74,6.68,23.85,16.88,43.48,33,63.59,2.84,3.55,5.82,7.12,8.49,10.33a100.14,100.14,0,0,1-35.13-7.65,230.19,230.19,0,0,1-36.9-19.55c-2.72-5.16-6.24-11.93-9.6-18.78a316.92,316.92,0,0,1-25.16-70.27A257.82,257.82,0,0,0,778.85,664.36Zm49.71,18.93c15.5,0,31.21-5.62,48-17.17,7.75,24.59,21,42.73,38.59,62.3,3.45,3.86,7,7.67,10.07,11-23.92,11.28-44,16.59-63.22,16.71-3.34-4-6.87-8.21-10.26-12.43-15.55-19.37-25.47-38.24-32-61A64,64,0,0,0,828.56,683.29Zm95.29-59.74c9,26.39,28.74,47.27,47.83,67.47l2.61,2.76c4.05,4.3,8.23,8.6,11.56,12-5.05,2.88-10.08,5.81-15.07,8.72-13.79,8.05-28,16.37-42.53,23.4-3.26-3.48-7-7.55-10.71-11.65-17.48-19.51-30.68-37.56-38.21-62.12C895.27,652.65,910.41,637.29,923.85,623.55Zm-5.48-68.81-.85,0c.11,15.56.23,31.64,1.72,47.4a92.29,92.29,0,0,0,3.51,17.9c-13.5,13.81-28.74,29.34-44.39,40.78-1.22-4.35-2.2-8.59-3-12.93q-5.85-31.78-11.9-64.17c3.07-1.16,5.84-2.32,8.45-3.52,17.44-8,33.4-18.61,45.59-27.19l0,1.71Zm-90.3-182.31c-1.71.14-3.46.24-5.35.28q-2.28-14.35-4.45-28.54c-.92-5.95-1.85-12-2.8-18,1.25.07,2.35.1,3.41.11,14.35.05,28.62-3.19,43.64-10.08,3.65,12.91,8,26.61,14,44.16C859.24,367.13,843.38,371.09,828.07,372.43ZM819.55,323h-.65c-1.22,0-2.48,0-3.94-.14-1.78-11.34-4.13-26.05-6.68-40.55-.24-1.37-.5-2.74-.76-4.1,1.37.22,2.64.39,3.87.53a81.91,81.91,0,0,0,41-5.74c.29,1.34.57,2.69.82,4,2.12,11.33,4.88,23.1,8.44,36C847.11,319.75,833.34,323,819.55,323Zm-7.79-47.47c-1.6-.19-3.25-.42-4.91-.71a376.65,376.65,0,0,0-11.23-41.54c1.33.34,2.67.67,4,.95a84.9,84.9,0,0,0,40.52-.75,244.48,244.48,0,0,1,11.57,36.29A78.79,78.79,0,0,1,811.76,275.56Zm-11.47-44.45h0c-1.81-.4-3.69-.88-5.88-1.51-3.86-11.55-8-22.75-11.93-33.21l1.15.38a92,92,0,0,0,41.48,3.38c5.83,11.95,10.11,21.37,13.79,30.33A81.77,81.77,0,0,1,800.29,231.11ZM784.6,193.7c-1.22-.39-2.42-.81-3.62-1.24l-2.32-6.13c-3.1-8.16-5.91-15.6-8.69-23.19a100.35,100.35,0,0,0,35.19,6.23c1.41,0,2.91,0,4.69-.11q3.84,7.91,7.74,15.67,3,6,6,12.15A88.71,88.71,0,0,1,784.6,193.7ZM770.68,160h0c-.62-.23-1.24-.49-1.85-.74l-.33-.13c-3.88-10.76-7-19.9-9.59-28.57a101.81,101.81,0,0,0,37,8.07c3.38,8.25,7.33,17,12.38,27.51A97.92,97.92,0,0,1,770.68,160Zm-61.84-40.9c-3.39-2.88-6.79-5.82-10.22-8.78l-.43-.36q-2.7-2.34-5.41-4.67c-1.78-9.42-3.19-17.43-4.4-25l6.42,5.43L700,90.11c5.68,4.81,12.11,10.26,18.78,15.49,1.82,8.27,4,17.16,6.6,27.09C719.48,128,713.75,123.22,708.84,119.05ZM655.43,76.14c-1-8.65-1.73-16-2.38-22.84a323.22,323.22,0,0,1,31.56,23.8c1.17,7.55,2.53,15.49,4.25,24.79C678.46,93,667.27,83.9,655.43,76.14ZM592,106.58h-1.1a92.55,92.55,0,0,0-22.42,3.14q.42-12.72.81-25.45a97,97,0,0,1,21.63-2.61h.34a91.08,91.08,0,0,1,21,2.53q.42,12.51.86,24.94A91.19,91.19,0,0,0,592,106.58Zm-25.14-49.9c-12.52,2.59-25.29,7.31-38.95,14.41.72-8.12,1.41-16.46,2-24.82a163.15,163.15,0,0,1,37.46-11.86Q567.12,45.54,566.81,56.68ZM524.46,72.9c-12.91,7-25.26,15.3-36.76,23.34,1.53-10.56,2.85-20.31,4-29.74a383.94,383.94,0,0,1,34.81-18.72C525.9,56.23,525.2,64.67,524.46,72.9Zm-45.68,1.38,9.43-5.68c-1.22,9.55-2.58,19.45-4.14,30.2-2.37,1.66-4.73,3.34-7.18,5.07-4.94,3.51-10.05,7.13-15,10.55-3.75,2.58-8.6,5.89-13.75,9.25,2.31-12.4,4.32-23.83,6.15-34.89,5.87-3.31,11.56-6.7,15.88-9.29Zm-34.39,51.78c-14.47,9.2-26.88,15.61-38.86,20.07,3.58-14.07,6.66-26.85,9.42-39a229.29,229.29,0,0,0,35.7-16.33C448.8,101.92,446.74,113.48,444.39,126.06Zm-33.25-17.67.22-.07c-2.74,12.05-5.86,24.87-9.49,39.1-2.6.89-4.95,1.63-7.19,2.26a114.1,114.1,0,0,1-34.19,3.93c4.56-14,8.54-26.77,12.16-39A135.56,135.56,0,0,0,411.14,108.39Zm-15.59,44.4c1.68-.47,3.41-1,5.36-1.64-3.12,12.14-6.34,24.34-9.38,35.83l-2.09,7.93c-2.85,1-5.42,1.78-7.82,2.43a100.55,100.55,0,0,1-36.59,2.6l1.22-3.63c4.47-13.21,8.84-26.18,13.2-39.51A117.29,117.29,0,0,0,395.55,152.79ZM350.41,253.35a84.71,84.71,0,0,0,17.24-1.72c2.77-.57,5.61-1.31,8.67-2.24l-1.09,4.76c-3.26,14.27-6.46,28.24-9.87,42.13-1.7.33-3.4.62-5,.84-13.86,1.86-28.69.44-45.32-4.35,5.1-14.48,9.76-29.14,13.68-41.7A111.34,111.34,0,0,0,350.41,253.35Zm-36.49,42.46a123.14,123.14,0,0,0,34.4,5.33,94.14,94.14,0,0,0,12.43-.82c1.2-.16,2.44-.36,3.75-.6l-.15.6c-.41,1.68-.82,3.36-1.25,5a315.56,315.56,0,0,1-10.92,33.82,78.91,78.91,0,0,1-8.82.17c-13.25-.48-26.92-3.19-41.77-8.28,3.27-9.91,6.79-20,10.48-30,.46-1.25.9-2.51,1.35-3.78Zm29.32,46.76h0c2.56.09,5.1.06,7.66-.09-3.31,8.59-6.86,17.17-10.49,25.93q-2.16,5.2-4.32,10.46a90.37,90.37,0,0,1-10.57-.53,137.81,137.81,0,0,1-35.49-9c3.12-11.43,6.66-23.27,10.55-35.2C315.71,339.31,329.67,342.07,343.24,342.57Zm-18.06,39c3.2.34,6.42.53,9.6.56a424.25,424.25,0,0,0-15.36,43.1c-1.28-.12-2.56-.24-3.85-.41A121.24,121.24,0,0,1,279.47,414c2.78-13.86,6-27.46,9.72-41.49A141.59,141.59,0,0,0,325.18,381.55Zm-10,46.46c1.14.14,2.26.25,3.39.36-1.54,5.67-2.78,11-3.78,16.18-2.61,13.54-5.73,28.25-9.56,44.95-2-.41-4-.84-5.85-1.32-10.38-2.61-21-7.05-33.31-13.95A320,320,0,0,0,276,432.71c.86-5.07,1.81-10.28,2.83-15.5A124.18,124.18,0,0,0,315.16,428ZM265.65,651.45c-7.16,20.45-17.89,37.34-35.75,56.34q-3.12,3.32-6.26,6.58l-.28.29c-3.21-1.31-6.52-2.71-9.86-4.16-12.95-5.6-25.91-11.76-38.5-17.74-7.17-3.4-15.26-7.24-23.24-10.91,3-2.86,6.08-5.75,9.06-8.64,19.74-19.12,32.28-36,41.78-56.15C222.63,629.47,244,642.29,265.65,651.45Zm-39,64.42c1.87-2,3.73-3.9,5.58-5.87,18.16-19.31,29.08-36.5,36.39-57.31,24.74,10,46.31,13.53,65.87,10.66-6,22.72-16.2,42.59-33.09,64.24q-2,2.53-3.95,5c-20.89-.27-42.82-5.42-70.89-16.66Zm312.7-236.52c11-5.77,22-8.69,32.5-8.69h.24c10.72,0,21.85,3.17,33.06,9.31.45,42.7,5.69,85.92,11.07,126.6-12.34-4.69-23.89-7-35.26-7.07h-.53c-11.47,0-23.29,2.09-36.11,6.39q-.44-9.57-.86-19.15c-.46-10.55-1.1-21.36-1.72-32C540.39,531.38,538.84,504.88,539.37,479.35ZM879.53,359.12c-6-17.65-10.4-31.4-14-44.35,15.17-7.4,29.11-17.51,39.73-25.7,7.75,15.52,16.94,30.16,26.06,44.33C914.66,342.46,897.51,351.78,879.53,359.12ZM827,196.58c-2.15-4.39-4.32-8.75-6.47-13.09q-3.57-7.16-7.14-14.42c17.85-1.29,34.27-6.57,45.37-10.59,4.53,8.92,8,16.35,11,23.33C854.3,189.59,840.3,194.43,827,196.58ZM652.69,49.23c-.86-9.58-1.51-18.38-2-26.85a287.21,287.21,0,0,1,29.82,21.85c.77,8.71,1.87,17.93,3.37,28.08A298.47,298.47,0,0,0,652.69,49.23ZM591.21,78.44h-.35a100.3,100.3,0,0,0-21.51,2.5q.31-10.77.62-21.55a110.2,110.2,0,0,1,19.9-1.86h1A97.64,97.64,0,0,1,611.49,60q.3,10.45.65,20.88A94.38,94.38,0,0,0,591.21,78.44Zm-99-16c1.29-10.54,2.36-20.22,3.25-29.53,13.08-7,23.39-12,33.17-16-.47,8.15-1.06,16.85-1.83,27.19A365,365,0,0,0,492.25,62.44Zm-76.47,41C418.66,90.5,421,79,423,68.14l0-.28a279,279,0,0,0,33.27-14c-1.44,10.49-3.12,21.53-5,32.84C438,94.18,426.63,99.51,415.78,103.4Zm-3.58,1.24h0c-.67.23-1.34.46-2,.67a130.57,130.57,0,0,1-36.56,6c3.64-12.47,6.68-23.64,9.29-34.12l.08-.3A184,184,0,0,0,419.54,69C417.54,79.89,415.13,91.57,412.2,104.64ZM310.55,145.26c5.24-12.75,9.92-24.4,14.26-35.57,10.83,2.18,26.81,4.94,44.09,4.94h.37c-3.6,12.15-7.58,24.88-12.13,38.85C339.74,152.61,323.21,148.69,310.55,145.26Zm33.32,58.12.1-.3a124.08,124.08,0,0,0,12.68.68,99.32,99.32,0,0,0,25.81-3.3c1.86-.5,3.8-1.09,6-1.82-4.1,15.82-7.86,32-11.33,47.13a99.44,99.44,0,0,1-10.14,2.7c-11.33,2.35-23.56,2.19-37.35-.49l1.56-5C335.26,230,339.45,216.48,343.87,203.38ZM259.7,269.12c4.43-11.61,9.23-23.78,14.68-37.13,13.71,6.1,32.16,14.22,51.13,18.42-3.9,12.49-8.54,27.06-13.61,41.44C293,286,274.63,276.71,259.7,269.12ZM927.52,741.87l3.13,3.34c23.19,24.7,47.16,50.25,57,83-20.36,4.68-47,10.21-74.52,12.14-7.41-32.12-28.2-56.88-48.32-80.84l-.16-.19C883.78,758.72,903.83,753.15,927.52,741.87Zm61.24-37.72c-3.67-3.76-7.93-8.14-12.12-12.58L974,688.8c-19.23-20.34-39.1-41.36-47.63-67.85,15-15.34,29.18-29.84,43.92-40.29,9.19,27.33,33.48,52.1,53.06,72.05,4.5,4.59,8.75,8.93,12.69,13.13,3.32,3.54,7,7.38,11.46,12C1026.82,683.5,1006.26,694.26,988.76,704.15ZM936,535.64c-4.46,3.28-9.93,7.3-15.34,11.18-.11-11.36-.33-21-.95-30.69A363.84,363.84,0,0,0,915,476.57c13.38-5.5,26.39-11.38,39-17.06,9.11-4.12,17.36-7.83,25.57-11.4,0,17.34-3.16,34.39-6.47,52.42-.63,3.45-1.27,6.92-1.88,10.41C959,518.77,946.79,527.73,936,535.64Zm16.58-79.08c-11.76,5.32-25.05,11.32-38.22,16.76a372.82,372.82,0,0,0-10.6-42.77c-1.41-4.56-3-9.36-5-15.48,17.58-5.92,34.65-12.7,51.15-19.26,5-2,10-4,14.91-5.9,2.72,5.57,5,10.82,7.06,16a112.06,112.06,0,0,1,7.54,38.7C970.28,448.58,960.89,452.82,952.6,456.56Zm-3.84-63.75c-15.69,6.24-33.44,13.29-51,19.2-3.63-10.89-7.39-21.67-10.93-31.8q-3.14-9-6.27-18c18.28-7.45,35.64-16.89,52.44-26.05l1.55,2.39c10,15.54,20.37,31.6,28.86,48.49Q956.11,389.88,948.76,392.81ZM864.6,311.6c-3.46-12.56-6.15-24.06-8.23-35.13-.3-1.59-.62-3.17-1-4.75,11.39-5.07,22.68-12.65,34.46-23.12.38,1.4.75,2.8,1.13,4.2a195.52,195.52,0,0,0,12.75,33.32C893.28,294.21,879.52,304.25,864.6,311.6Zm-9.91-43.1a247.06,247.06,0,0,0-11.46-35.89c12.16-3.61,24.41-9.83,37.37-19,2,7.12,3.89,14.27,5.77,21.58.84,3.25,1.7,6.56,2.58,9.88C877.2,255.72,866,263.38,854.69,268.5ZM842,229.6c-3.65-8.93-7.87-18.26-13.58-30,13.33-2.28,27.25-7.13,42.49-14.8a269.47,269.47,0,0,1,8.74,25.56C866.56,219.71,854.23,226,842,229.6Zm-30.19-63.67c-5-10.42-9-19.13-12.35-27.26H800c16.91,0,32.75-3.61,44.78-6.83q2.34,4.49,4.7,8.93c2.57,4.88,5.18,9.81,7.74,14.81C846.08,159.61,829.61,164.85,811.82,165.93Zm-13.69-30.51A256.89,256.89,0,0,1,788,105.34c13.69,1.73,27.75,1,42.87-2,4,9.16,8.51,18,12.42,25.53C831.06,132.15,815.12,135.73,798.13,135.42Zm-80.4-34.79c-5.57-4.46-10.89-9-15.64-13l-4.83-4.1c-3.2-2.71-6.41-5.44-9.64-8.14-1.53-10-2.69-19.3-3.55-28.28q5.34,4.44,10.6,8.9l.79.67h0c6.08,5.14,11.68,9.65,17.09,13.78C713.78,80,715.48,89.87,717.73,100.63ZM590.88,54.31h-1.15a111.94,111.94,0,0,0-19.67,1.77q.3-11.1.56-22.19a123.12,123.12,0,0,1,20.22-1.41,100.79,100.79,0,0,1,20,2.36q.27,10.91.58,21.81A100.93,100.93,0,0,0,590.88,54.31Zm0-25.06-1.95,0a126.18,126.18,0,0,0-18.25,1.35q.3-13,.54-26a130.63,130.63,0,0,1,19.62-1.36,99.54,99.54,0,0,1,19.36,2.13q.21,13,.52,26.14A103.83,103.83,0,0,0,590.89,29.25Zm-98.82,5.5c-.92,9.45-2,19.22-3.34,29.78q-5.88,3.5-11.72,7l-8.52,5.14c-3.72,2.23-8.54,5.1-13.56,8,1.89-11.68,3.49-22.35,4.87-32.57,4.78-2.41,9.8-5.06,14.94-7.88l4.18-2.3C483.28,39.54,487.67,37.13,492.07,34.75ZM326,106.63c4.33-11.21,8.08-21.3,11.45-30.79a179.58,179.58,0,0,0,42.11,1.39c-2.63,10.5-5.69,21.69-9.34,34.16C356.94,111.48,342.53,109.91,326,106.63Zm-32,78.24c5.21-12.39,10.3-24.52,15.29-36.6,12.7,3.45,29.28,7.42,46.79,8.39-4.21,12.87-8.5,25.62-12.9,38.62l-1.44,4.28c-17-2.11-33.34-7.35-48.55-12.77Zm34.17,57-1.71,5.49C307.77,243.24,290,235.41,275.6,229c5.4-13.18,10.82-26.09,16.34-39.23,15.23,5.43,31.65,10.7,48.76,12.91C336.33,215.66,332.18,229,328.18,241.84ZM258.1,273.36l.45-1.2c14.92,7.58,33.29,16.85,52.27,22.74l-.49,1.38q-.63,1.83-1.29,3.63c-3.7,10-7.23,20.16-10.5,30.09-17.22-6.22-33.8-14.82-49.2-23.24A140.36,140.36,0,0,1,256.71,277C257.16,275.81,257.63,274.59,258.1,273.36Zm39.44,59.7c-3.87,11.88-7.41,23.67-10.52,35.07-14.29-5.85-27.57-13.34-39.84-20.6a299.43,299.43,0,0,1,1.72-37.33C264.06,318.46,280.4,326.89,297.54,333.06Zm-51.42,65.67a289.42,289.42,0,0,0,29.69,17.06c-1.08,5.52-2.1,11-3,16.38a314.58,314.58,0,0,1-9.62,40.43c-6.25-3.6-12.39-7.48-18.34-11.23-4.72-3-9.74-6.14-14.7-9.1a124.07,124.07,0,0,0,14.07-39C245,408.77,245.62,404,246.12,398.73Zm-17.57,56.35c4.82,2.88,9.64,5.91,14.57,9,6.17,3.89,12.54,7.92,19,11.65a334.69,334.69,0,0,1-14.87,38.17c-4.3,9.35-9,18.55-13.89,27.93-4.87-2.94-9.69-5.93-14.46-8.9-11.32-7-23-14.27-34.95-20.68l4.5-5.13C202.8,490.87,217.6,474.05,228.55,455.08ZM181.8,514.76c12.07,6.43,23.94,13.8,35.43,20.93,4.85,3,9.74,6,14.68,9l-.46.9c-8.92,17.15-18.15,34.89-24.87,53.37-1.7,4.66-3.47,9-5.4,13.38L196,609.16c-20-12.45-38.91-24.23-56.5-32,1.84-4.07,3.75-8.25,5.89-12.37C155,546.28,168.59,529.93,181.8,514.76Zm12.51,97.14,5.53,3.44c-9.34,20-21.72,36.62-41.26,55.55-3.29,3.18-6.66,6.37-10,9.52-19.11-8.69-44.22-19.33-70.71-25.69,3.37-3.26,6.76-6.55,10.07-9.83,11.57-11.45,26-25.71,37.33-41.31,5.35-7.34,9-15,12.9-23.49C155.58,587.78,174.4,599.51,194.31,611.9ZM75.13,657.38c26.48,6.12,51.68,16.71,70.92,25.43l-.35.33c-24.3,22.91-49.42,46.6-62.37,78.73-29.86-8.93-54.92-13.58-78.69-14.58C18.8,711.8,46.9,684.66,74.07,658.41Zm72.79,28.1,1.31-1.23c8.39,3.83,16.88,7.86,24.39,11.43,12.56,6,25.56,12.14,38.59,17.79q4.36,1.88,8.76,3.7l-.28.3c-20.64,21.54-42,43.8-51.72,73.78-10.67-3.62-21.39-7.46-30.88-10.86-15.88-5.7-33.86-12.14-51.66-17.58C99.15,731.47,123.94,708.1,147.92,685.48ZM223,719.7l1.16-1.22c28,11.31,49.92,16.68,70.8,17.33-18.45,23.47-35.73,45.85-42.74,75.84-5.9-.57-11.72-1.37-17.31-2.39-18.53-3.38-38-8.62-62.9-17C181.52,763,201.68,742,223,719.7Zm75.74,16.52.28-.35h.08a116.06,116.06,0,0,0,38.8-6.44,248.94,248.94,0,0,0,34.49-15.24c-1.74,4.09-3.49,8.15-5.22,12.14-10.91,25.3-22.19,51.45-28.39,79l0,.18c-27.73,5.62-55.6,8.64-83.27,6.4C262.56,782.28,280.15,759.9,298.76,736.22Zm71.4-8.61c2.24-5.2,4.53-10.52,6.78-15.85,21.8-12,42.46-26.4,62.44-40.36,5.84-4.08,12.4-8.67,18.86-13.09-1.35,10.92-2.75,21.81-4.13,32.48-3.62,28.1-7.37,57.14-10.07,86-6.93,2-13.87,4.12-20.7,6.17-26.69,8-53.83,16.16-81.1,21.9C348.42,778,359.47,752.39,370.16,727.61Zm77.22,48.16c2.68-28.34,6.37-56.92,9.94-84.57,1.49-11.58,3-23.44,4.48-35.3l5.13-3.45,4.62-3.08c20.91-14,44.57-29.75,69.76-39l0,.46c2.07,46,4.21,93.56,4.88,140.58-27.32,4.52-54.29,11.93-80.38,19.1l-1.69.47C459.2,772.36,453.85,773.88,447.38,775.77Zm102-24.86c-.67-46.81-2.81-94.28-4.88-140.21l-.06-1.44c12.83-4.4,24.59-6.53,36-6.53H581c11.48.07,23.19,2.52,35.77,7.49L618.3,622c5.73,42.83,11.66,87.1,12.89,130.89a191.55,191.55,0,0,0-43.9-5.45c-3.79,0-7.58.13-11.27.4C567.49,748.43,558.78,749.44,549.43,750.91Zm70.75-139.27c25.11,10.71,48.07,29,68.38,45.14L693.9,661c2.12,1.68,4.24,3.39,6.37,5.11l1.45,5.34c10.28,37.94,20.91,77.16,25.52,117-17.39-7.9-32.11-14.34-46.93-20-12.32-4.68-28.63-10.58-45.86-14.84-1.18-44.21-7.16-88.87-13-132.09Zm84.65,59-.27-1c5.54,4.53,11,9.12,16.63,13.8,19.69,16.46,40,33.48,62,47.65,1.81,3.44,3.62,6.86,5.41,10.23,14.79,27.83,30.06,56.58,37,87.8-29.28-9.11-58-22.26-86.3-35.18l-8.65-4C726.16,749.32,715.32,709.32,704.83,670.63Zm286,156.82C980.79,793.91,956.5,768,933,743l-2.44-2.6c14.23-7,28.26-15.16,41.84-23.09,5.22-3,10.48-6.11,15.77-9.12l4.43,4.52c28.56,29.13,58.08,59.25,72.64,96.89-14.9,3.24-29.71,6.91-44,10.47C1011.86,822.39,1001.29,825,990.81,827.45Zm77.64-18.53c-14.73-38.48-44.62-69-73.53-98.47l-3.83-3.91c17.65-9.95,38.34-20.7,59-26l8.87,9.09c32.59,33.3,66.28,67.72,83.62,109.48C1120.71,799.68,1097.09,802.83,1068.45,808.92Z"/></g></g></svg>